<svg width="19" height="19" viewBox="0 0 24 24" xmlns="http://www.w3.org/2000/svg" class="navbar-link-icon"><path d="M23.25 0a.75.75 0 0 1 .75.75v16.5a.75.75 0 0 1-.75.75H18v5.25a.75.75 0 0 1-.648.743L17.25 24H.75a.75.75 0 0 1-.75-.75V6.75A.75.75 0 0 1 .75 6H6V.75A.75.75 0 0 1 6.75 0h16.5zM6 7.5H1.5v15h15V18H6.75a.75.75 0 0 1-.75-.75V7.5zm16.5-6h-15l-.001 5.235.001.015v9.75h.495a7.043 7.043 0 0 1 3.188-5.172 4.5 4.5 0 1 1 7.634.002 7.035 7.035 0 0 1 3.188 5.17h.495v-15zm-4.697 10.965l-.145.113a4.48 4.48 0 0 1-2.658.869 4.48 4.48 0 0 1-2.804-.98 5.54 5.54 0 0 0-2.69 4.033h10.988a5.545 5.545 0 0 0-2.69-4.035zM15 5.947a3 3 0 1 0 0 6 3 3 0 0 0 0-6z" fill="#1A1A1A" fill-rule="nonzero"></path></svg>