<svg width="30" height="30" viewBox="0 0 30 30" fill="none" xmlns="http://www.w3.org/2000/svg" class="profile-hub-account-links-icon" aria-hidden="true"><rect width="30" height="30" rx="15" fill="#34F"></rect><path d="M23.25 9.119H14.1C13.8 7.877 12.6 7 11.25 7S8.7 7.877 8.4 9.119H6.75c-.45 0-.75.365-.75.73 0 .366.3.73.75.73H8.4c.3 1.243 1.5 2.12 2.85 2.12a2.96 2.96 0 0 0 2.85-2.12h9.15c.45 0 .75-.364.75-.73 0-.365-.3-.73-.75-.73zm-12 2.265c-.825 0-1.575-.658-1.575-1.535 0-.803.675-1.534 1.575-1.534.825 0 1.575.658 1.575 1.534 0 .877-.75 1.535-1.575 1.535zM23.25 14.233H21.6c-.3-1.242-1.5-2.119-2.85-2.119s-2.55.877-2.85 2.119H6.75c-.45 0-.75.365-.75.73 0 .366.3.731.75.731h9.15c.3 1.242 1.5 2.119 2.85 2.119a2.96 2.96 0 0 0 2.85-2.119h1.65c.45 0 .75-.365.75-.73 0-.366-.3-.731-.75-.731zm-4.5 2.265c-.825 0-1.575-.658-1.575-1.535 0-.803.675-1.534 1.575-1.534.825 0 1.575.658 1.575 1.534 0 .877-.75 1.535-1.575 1.535zM23.25 19.347H15.6c-.3-1.242-1.5-2.119-2.85-2.119s-2.55.877-2.85 2.119H6.75c-.45 0-.75.365-.75.73 0 .366.3.731.75.731H9.9c.3 1.242 1.5 2.119 2.85 2.119a2.96 2.96 0 0 0 2.85-2.119h7.65c.45 0 .75-.365.75-.73 0-.366-.3-.731-.75-.731zm-10.5 2.265c-.825 0-1.575-.658-1.575-1.534 0-.804.675-1.535 1.575-1.535.825 0 1.575.658 1.575 1.535 0 .876-.75 1.534-1.575 1.534z" fill="#fff"></path></svg>