<svg width="38" height="47" viewBox="0 0 38 47" fill="none" xmlns="http://www.w3.org/2000/svg" class="superlike-button-icon superlike-button-icon--pill" aria-hidden="true"><path fill-rule="evenodd" clip-rule="evenodd" d="M29.403 9.895c-.845.82-.875 2.123-.067 2.908.264.249.59.425.945.511l-2.006 1.959a7.3 7.3 0 0 0-3.88-1.107h-.013a7.587 7.587 0 0 0-4.195 1.328 7.146 7.146 0 0 0-1.797 1.777 7.148 7.148 0 0 0-1.797-1.777 7.586 7.586 0 0 0-4.195-1.328h-.013c-4.061 0-7.313 3.282-7.313 7.273 0 1.9.886 3.813 2.093 5.559 1.16 1.68 2.677 3.286 4.186 4.686l-.58.563H6.996a.902.902 0 0 0-.628.252L3.26 35.512a.842.842 0 0 0-.192.939.889.889 0 0 0 .82.531h3.255v3.157c0 .348.217.662.549.795.331.134.713.06.967-.186l3.108-3.014a.848.848 0 0 0 .26-.608v-3.662l.632-.612 6.658-6.38c.062-.06.13-.11.204-.148a4.368 4.368 0 0 0-3.204-1.396.875.875 0 0 1-.886-.862c0-.476.399-.86.889-.86a6.172 6.172 0 0 1 4.287 1.725 5.802 5.802 0 0 1 1.779 4.157.875.875 0 0 1-.887.862.875.875 0 0 1-.889-.86c0-.426-.069-.845-.198-1.245l-6.358 6.166a58.048 58.048 0 0 0 3.288 2.452l.553.373c.3.195.694.194.994-.002l.553-.377c.346-.241.84-.592 1.431-1.032a55.59 55.59 0 0 0 4.343-3.58c1.579-1.451 3.184-3.132 4.4-4.886 1.204-1.739 2.092-3.642 2.092-5.52a7.24 7.24 0 0 0-2.063-5.061l1.898-1.852c.087.35.27.674.53.935.81.785 2.151.756 2.997-.065 1.07-1.04.997-3.507.84-4.983-.076-.71-.644-1.258-1.375-1.329-1.525-.148-4.075-.215-5.132.81zm-16.115 7.139a.875.875 0 0 1-.887.862 2.489 2.489 0 0 0-1.728.696 2.34 2.34 0 0 0-.718 1.676c0 .475-.399.86-.889.86a.875.875 0 0 1-.886-.863 4.036 4.036 0 0 1 1.237-2.89 4.293 4.293 0 0 1 2.981-1.2c.49-.002.889.383.89.859z" fill="#fff"></path><path d="M5.714 1C5.714 4.79 8 6.053 10 6.053 8 6.053 5.714 7.11 5.714 11 5.714 7.053 3.25 6.053 1 6.053c2.25 0 4.714-1.316 4.714-5.053z" fill="#fff" stroke="#fff" stroke-width=".5" stroke-linejoin="round"></path><path d="M31.482 35.89a.6.6 0 0 1 1.037 0l1.288 2.212a.6.6 0 0 0 .391.284l2.502.542a.6.6 0 0 1 .32.986l-1.705 1.909a.6.6 0 0 0-.15.46l.258 2.546a.6.6 0 0 1-.839.61l-2.342-1.032a.6.6 0 0 0-.484 0l-2.342 1.032a.6.6 0 0 1-.839-.61l.258-2.546a.6.6 0 0 0-.15-.46l-1.705-1.909a.6.6 0 0 1 .32-.986l2.502-.542a.6.6 0 0 0 .391-.284l1.288-2.212z" fill="#fff"></path></svg>